<svg xmlns="http://www.w3.org/2000/svg" version="1.1" xmlns:xlink="http://www.w3.org/1999/xlink" xmlns:svgjs="http://svgjs.dev/svgjs" width="2000" height="2729" viewBox="0 0 2000 2729"><g transform="matrix(1,0,0,1,1.4469033549572714,1.10485829959498)"><svg viewBox="0 0 181 247" data-background-color="#ffffff" preserveAspectRatio="xMidYMid meet" height="2729" width="2000" xmlns="http://www.w3.org/2000/svg" xmlns:xlink="http://www.w3.org/1999/xlink"><g id="tight-bounds" transform="matrix(1,0,0,1,-0.13092593023031895,-0.09999999999999432)"><svg viewBox="0 0 181.26191677624647 247.2" height="247.2" width="181.26191677624647"><g><svg viewBox="0 0 181.26191677624647 247.2" height="247.2" width="181.26191677624647"><g><svg viewBox="0 0 181.26191677624647 247.2" height="247.2" width="181.26191677624647"><g><svg viewBox="0 0 395.52 539.3992612397036" height="247.2" width="181.26191677624647"><g transform="matrix(1,0,0,1,0,240.10536818758808)"><svg viewBox="0 0 395.52 299.29389305211555" height="299.29389305211555" width="395.52"><g id="textblocktransform"><svg viewBox="0 0 395.52 299.29389305211555" height="299.29389305211555" width="395.52" id="textblock"><g><svg viewBox="0 0 395.52 169.67505008839132" height="169.67505008839132" width="395.52"><g transform="matrix(1,0,0,1,0,0)"><svg width="395.52" viewBox="1.7 -35.55 84.85 36.4" height="169.67505008839132" data-palette-color="#ee3e38"><path d="M17.9-35.55Q21.5-35.55 24.1-34.6 26.7-33.65 29-31.75L29-31.75 25-26.9Q21.85-29.45 18.1-29.45L18.1-29.45Q14.55-29.45 12.38-26.45 10.2-23.45 10.2-17.4L10.2-17.4Q10.2-11.35 12.35-8.43 14.5-5.5 18.25-5.5L18.25-5.5Q20.55-5.5 22.2-6.3 23.85-7.1 25.75-8.6L25.75-8.6 29.45-3.85Q24.85 0.85 17.8 0.85L17.8 0.85Q13.05 0.85 9.43-1.25 5.8-3.35 3.75-7.48 1.7-11.6 1.7-17.4L1.7-17.4Q1.7-23.05 3.8-27.15 5.9-31.25 9.6-33.4 13.3-35.55 17.9-35.55L17.9-35.55ZM51.1-6L57.55-6 57.55 0 35.05 0 35.05-6 43.4-6 43.4-26.9 36.25-22.4 32.9-27.85 44.1-34.65 51.1-34.65 51.1-6ZM73.8-35.55Q77.59-35.55 80.3-34.2 83-32.85 84.37-30.58 85.75-28.3 85.75-25.6L85.75-25.6Q85.75-22.75 84.45-20.1 83.15-17.45 80.17-14.18 77.2-10.9 71.75-6.05L71.75-6.05 86.55-6.05 85.7 0 62.7 0 62.7-5.6Q68.84-11.55 71.9-14.88 74.95-18.2 76.32-20.53 77.7-22.85 77.7-24.9L77.7-24.9Q77.7-27.05 76.5-28.25 75.3-29.45 73.05-29.45L73.05-29.45Q71.09-29.45 69.65-28.63 68.2-27.8 66.8-25.95L66.8-25.95 62-29.6Q64.05-32.45 66.92-34 69.8-35.55 73.8-35.55L73.8-35.55Z" opacity="1" transform="matrix(1,0,0,1,0,0)" fill="#ee3e38" class="wordmark-text-0" data-fill-palette-color="primary" id="text-0"></path></svg></g></svg></g><g transform="matrix(1,0,0,1,0,194.43471209748972)"><svg viewBox="0 0 395.52 104.85918095462583" height="104.85918095462583" width="395.52"><g transform="matrix(1,0,0,1,0,0)"><svg width="395.52" viewBox="4.485763861115 -36.45 138.426736138885 36.705000000000005" height="104.85918095462583" data-palette-color="#8d021f"><path d="M7.65 0.1L7.65 0.1Q6.9 0.15 6.25-0.25L6.25-0.25Q5.45-0.5 4.98-1.18 4.5-1.85 4.5-2.7L4.5-2.7Q4.5-4.3 4.75-18.35L4.75-18.35Q4.8-20.65 4.6-25.7L4.6-25.7Q4.4-30.65 4.55-33.4L4.55-33.4Q4.6-34.45 5.38-35.15 6.15-35.85 7.15-35.8L7.15-35.8 7.35-35.8Q7.8-36.05 8.3-36.1L8.3-36.1Q10.6-36.3 11.95-36.38 13.3-36.45 15.75-36.45 18.2-36.45 19.95-36.13 21.7-35.8 23.83-35.05 25.95-34.3 27.6-33.1L27.6-33.1Q31.1-30.55 32.73-26.58 34.35-22.6 34.2-18.2L34.2-18.2Q34.05-13.95 32.3-10L32.3-10Q30.5-6.1 27.35-3.6L27.35-3.6Q23.6-0.6 17.2-0.1L17.2-0.1Q15.3 0.05 12.2 0.05L12.2 0.05Q8.85 0.05 7.65 0.1L7.65 0.1ZM9.55-4.95L12.2-4.95Q15.15-4.95 16.8-5.1L16.8-5.1Q21.35-5.45 23.95-7.5L23.95-7.5Q26.15-9.25 27.48-12.18 28.8-15.1 28.9-18.4L28.9-18.4Q29.05-21.7 27.9-24.5L27.9-24.5Q26.7-27.35 24.4-29L24.4-29Q22.55-30.35 20-30.95L20-30.95Q17.4-31.55 14.95-31.48 12.5-31.4 9.5-31.15L9.5-31.15Q9.45-29.7 9.6-25.9L9.6-25.9Q9.8-20.45 9.75-18.25L9.75-18.25Q9.75-16.75 9.7-14.08 9.65-11.4 9.6-9.15 9.55-6.9 9.55-4.95L9.55-4.95ZM78.38 0.25L78.38 0.25Q74.68 0 71.93-1.25 69.18-2.5 67.73-4.4 66.28-6.3 65.63-7.9 64.98-9.5 64.83-11.08 64.68-12.65 64.98-15.15L64.98-15.15Q65.33-17.25 66.45-19.3 67.58-21.35 69.45-22.98 71.33-24.6 73.98-25.48 76.63-26.35 79.63-26L79.63-26Q82.53-25.65 84.58-24.43 86.63-23.2 88.08-21.3L88.08-21.3Q89.33-19.7 89.6-18.9 89.88-18.1 90.1-17.4 90.33-16.7 90.48-16.2 90.63-15.7 90.75-15.18 90.88-14.65 90.93-13.95L90.93-13.95Q90.98-13 90.58-12.2 90.18-11.4 89.38-10.95L89.38-10.95Q88.73-10.7 87.98-10.7L87.98-10.7 79.43-10.55Q70.43-10.5 70.43-10.35L70.43-10.35 70.28-10.35Q70.93-7.8 73-6.35 75.08-4.9 78.68-4.65L78.68-4.65Q80.63-4.55 81.93-4.85L81.93-4.85Q83.38-5.25 84.03-5.58 84.68-5.9 85.63-6.45L85.63-6.45Q86.58-6.8 87.53-6.35 88.48-5.9 88.83-4.95 89.18-4 88.75-3.1 88.33-2.2 87.43-1.7L87.43-1.7Q86.63-1.25 85.78-0.93 84.93-0.6 83.28-0.15 81.63 0.3 78.38 0.25L78.38 0.25ZM70.38-15.25L70.38-15.25Q73.28-15.4 85.43-15.55L85.43-15.55Q84.98-17.05 83.98-18.4L83.98-18.4Q81.98-20.7 79.03-21.05L79.03-21.05Q75.93-21.45 73.58-19.73 71.23-18 70.38-15.25L70.38-15.25ZM130.55 0L130.55 0Q129.6 0.05 128.85-0.5L128.85-0.5Q128.6-0.7 128.4-0.95L128.4-0.95Q128.2-1.15 128.05-1.4L128.05-1.4 127.65-2.1Q127.35-2.7 126.9-3.75L126.9-3.75 125.9-6Q125.1-7.95 122.43-14.93 119.75-21.9 119.25-23.15L119.25-23.15Q118.9-24.1 119.33-25.05 119.75-26 120.7-26.38 121.65-26.75 122.6-26.33 123.55-25.9 123.95-24.95L123.95-24.95Q124.35-23.85 127.08-16.75 129.8-9.65 130.5-7.9L130.5-7.9 130.7-7.45Q130.9-7.8 131.05-8.18 131.2-8.55 131.3-8.78 131.4-9 131.45-9.2L131.45-9.2 131.55-9.4Q131.9-10.2 134.23-16.2 136.55-22.2 138.2-25.2L138.2-25.2Q138.7-26.1 139.7-26.4 140.7-26.7 141.6-26.2 142.5-25.7 142.8-24.7 143.1-23.7 142.6-22.8L142.6-22.8Q141-19.9 138.93-14.5 136.85-9.1 136.15-7.4L136.15-7.4 134.75-4.35Q134.05-2.95 133.45-2.05L133.45-2.05Q133-1.4 132.55-1L132.55-1Q131.65-0.1 130.55 0L130.55 0Z" opacity="1" transform="matrix(1,0,0,1,0,0)" fill="#8d021f" class="slogan-text-1" data-fill-palette-color="secondary" id="text-1"></path></svg></g></svg></g></svg></g></svg></g><g transform="matrix(1,0,0,1,75.54432,0)"><svg viewBox="0 0 244.43135999999998 215.34570617848968" height="215.34570617848968" width="244.43135999999998"><g><svg xmlns="http://www.w3.org/2000/svg" xmlns:xlink="http://www.w3.org/1999/xlink" version="1.1" x="0" y="0" viewBox="6.3 11.5 87.4 77" style="enable-background:new 0 0 100 100;" xml:space="preserve" height="215.34570617848968" width="244.43135999999998" class="icon-icon-0" data-fill-palette-color="accent" id="icon-0"><path d="M72.3 12.3L72.3 12.3 72.3 12.3l-0.4-0.8H28.2L6.3 50l21.8 38.5h43.7L93.7 50 72.3 12.3zM33.3 25.3L9.9 47.7l18.6-32.8L33.3 25.3zM70.7 14.8l6.4 35.7L36.9 25.8 70.7 14.8zM35.5 27.3l41 25.2-41 23.3V27.3zM77 54.5l-7.2 30.8-32.6-8.1L77 54.5zM33.5 75L9.9 50.5l23.6-22.7V75zM33.2 77.6l-4.6 7.7L11.5 55.1 33.2 77.6zM35 78.6l31.4 7.9H30.2L35 78.6zM79.3 53.3l11.6-2.5L72.1 84 79.3 53.3zM90.7 48.9l-11.4 2.5-5.9-33.1L90.7 48.9zM35 24.3l-5-10.8h38.2L35 24.3z" fill="#8d021f" data-fill-palette-color="accent"></path></svg></g></svg></g><g></g></svg></g></svg></g></svg></g><defs></defs></svg><rect width="181.26191677624647" height="247.2" fill="none" stroke="none" visibility="hidden"></rect></g></svg></g></svg>